<svg width="22" height="22" viewBox="0 0 22 22" fill="none" xmlns="http://www.w3.org/2000/svg">
<g clip-path="url(#clip0_583_143)">
<path d="M18.973 5.71874C18.198 3.21418 16.1605 1.17612 13.656 0.40101C11.0051 -0.420123 8.18476 0.0362486 6.03198 1.62248C3.89506 3.19776 2.61945 5.72123 2.61945 8.37258C2.61945 10.2016 3.19806 11.9393 4.29235 13.3975L11.0008 22.0001L17.7093 13.3969C19.347 11.2134 19.8079 8.41477 18.973 5.71874ZM11.0008 12.8856C8.51261 12.8856 6.4878 10.8608 6.4878 8.37253C6.4878 5.8843 8.51261 3.85948 11.0008 3.85948C13.4891 3.85948 15.5139 5.8843 15.5139 8.37253C15.5139 10.8608 13.4891 12.8856 11.0008 12.8856Z" fill="#323232"/>
<path d="M11.0009 5.15747C9.22345 5.15747 7.77725 6.59508 7.77725 8.37248C7.77725 10.1499 9.22345 11.5961 11.0009 11.5961C12.7783 11.5961 14.2245 10.1499 14.2245 8.37248C14.2245 6.59508 12.7783 5.15747 11.0009 5.15747Z" fill="#323232"/>
</g>
<defs>
<clipPath id="clip0_583_143">
<rect width="22" height="22" fill="white"/>
</clipPath>
</defs>
</svg>
