<svg width="19" height="21" viewBox="0 0 19 21" fill="none" xmlns="http://www.w3.org/2000/svg">
<path d="M18.1804 20.1228L16.9026 5.89192C16.8677 5.50329 16.542 5.2056 16.1519 5.2056H13.5166V4.01709C13.5166 1.80207 11.7147 0 9.49975 0C7.28493 0 5.48316 1.80207 5.48316 4.01709V5.2056H2.84614C2.456 5.2056 2.13028 5.50329 2.09541 5.89192L0.812523 20.1788C0.793629 20.3897 0.86418 20.5986 1.00699 20.7548C1.1498 20.911 1.35171 20.9999 1.56326 20.9999H17.4348C17.4354 20.9999 17.4362 20.9999 17.4368 20.9999C17.8532 20.9999 18.1906 20.6624 18.1906 20.2461C18.1905 20.2042 18.1871 20.1629 18.1804 20.1228ZM6.99067 4.01709C6.99067 2.6333 8.11627 1.5075 9.49985 1.5075C10.8835 1.5075 12.0092 2.6333 12.0092 4.01709V5.2056H6.99067V4.01709ZM2.38776 19.4925L3.53527 6.71311H5.48316V8.06101C5.48316 8.47728 5.82054 8.81476 6.23692 8.81476C6.65329 8.81476 6.99067 8.47728 6.99067 8.06101V6.71311H12.0092V8.06101C12.0092 8.47728 12.3466 8.81476 12.763 8.81476C13.1794 8.81476 13.5167 8.47728 13.5167 8.06101V6.71311H15.4628L16.6103 19.4925H2.38776Z" fill="white"/>
</svg>
