<svg width="35" height="28" viewBox="0 0 35 28" fill="none" xmlns="http://www.w3.org/2000/svg">
<path d="M33.0645 14.4437H30.1222V6.4364C30.1222 5.37093 29.2616 4.50416 28.2038 4.50416H23.7761V2.58445C23.7761 1.55148 22.9417 0.711151 21.9162 0.711151H1.85992C0.834395 0.711151 0 1.55148 0 2.58445V3.41046C0 3.69571 0.229551 3.92684 0.512695 3.92684C0.79584 3.92684 1.02539 3.69571 1.02539 3.41046V2.58445C1.02539 2.12102 1.39979 1.74392 1.85992 1.74392H21.9161C22.3762 1.74392 22.7506 2.12102 22.7506 2.58445V18.848H1.02539V5.83161C1.02539 5.54636 0.79584 5.31523 0.512695 5.31523C0.229551 5.31523 0 5.54636 0 5.83161V23.3356C0 24.3686 0.834395 25.2089 1.85992 25.2089H3.03816C3.29595 26.6245 4.52983 27.7006 6.00865 27.7006C7.48747 27.7006 8.72136 26.6245 8.97914 25.2089H17.1349C17.418 25.2089 17.6476 24.9778 17.6476 24.6926C17.6476 24.4073 17.418 24.1762 17.1349 24.1762H8.99056C8.76025 22.7275 7.51078 21.6172 6.00858 21.6172C4.50639 21.6172 3.25698 22.7276 3.02668 24.1762H1.85992C1.39979 24.1762 1.02539 23.7991 1.02539 23.3357V19.8808H22.7506V24.1762H19.4865C19.2034 24.1762 18.9738 24.4074 18.9738 24.6926C18.9738 24.9779 19.2034 25.209 19.4865 25.209H26.1356C26.3933 26.6246 27.6272 27.7007 29.106 27.7007C30.5847 27.7007 31.8187 26.6246 32.0765 25.209H33.0815C34.1394 25.209 34.9999 24.3422 34.9999 23.2768V16.3932C35 15.3182 34.1318 14.4437 33.0645 14.4437ZM6.00858 22.65C7.10842 22.65 8.00317 23.5512 8.00317 24.659C8.00317 25.7667 7.10842 26.668 6.00858 26.668C4.90875 26.668 4.01399 25.7667 4.01399 24.659C4.01399 23.5512 4.90882 22.65 6.00858 22.65ZM29.1061 26.6679C28.0062 26.6679 27.1115 25.7666 27.1115 24.6589C27.1115 23.5511 28.0062 22.65 29.1061 22.65C30.2059 22.65 31.1006 23.5511 31.1006 24.6589C31.1006 25.7666 30.2059 26.6679 29.1061 26.6679ZM33.9746 19.1929H32.6102C32.3276 19.1929 32.0975 18.9613 32.0975 18.6766C32.0975 18.3918 32.3275 18.1602 32.6102 18.1602H33.9746V19.1929ZM33.9746 17.1274H32.6102C31.7622 17.1274 31.0721 17.8224 31.0721 18.6766C31.0721 19.5307 31.7621 20.2257 32.6102 20.2257H33.9746V23.2767C33.9746 23.7727 33.574 24.1762 33.0816 24.1762H32.088C31.8577 22.7275 30.6083 21.6172 29.1061 21.6172C27.6039 21.6172 26.3545 22.7275 26.1241 24.1762H23.776V5.53693H28.2037C28.6962 5.53693 29.0968 5.9404 29.0968 6.4364V6.55668H25.6642C25.3811 6.55668 25.1515 6.78782 25.1515 7.07307V14.9601C25.1515 15.2454 25.3811 15.4765 25.6642 15.4765H33.0645C33.5663 15.4765 33.9745 15.8877 33.9745 16.3931V17.1274H33.9746ZM29.0968 7.58945V14.4437H26.177V7.58945H29.0968Z" fill="#333333"/>
<path d="M26.8494 17.1274H25.6641C25.3809 17.1274 25.1514 17.3585 25.1514 17.6438C25.1514 17.929 25.3809 18.1602 25.6641 18.1602H26.8494C27.1326 18.1602 27.3621 17.929 27.3621 17.6438C27.3621 17.3585 27.1326 17.1274 26.8494 17.1274Z" fill="#333333"/>
<path d="M14.8953 9.14144C15.1784 9.14144 15.4079 8.91031 15.4079 8.62506C15.4079 8.33981 15.1784 8.10867 14.8953 8.10867H12.8457C12.5626 8.10867 12.333 8.33981 12.333 8.62506V12.755C12.333 13.0402 12.5626 13.2713 12.8457 13.2713H14.8953C15.1784 13.2713 15.4079 13.0402 15.4079 12.755C15.4079 12.4697 15.1784 12.2386 14.8953 12.2386H13.3584V11.2064H14.8953C15.1784 11.2064 15.4079 10.9753 15.4079 10.69C15.4079 10.4048 15.1784 10.1737 14.8953 10.1737H13.3584V9.14144H14.8953Z" fill="#333333"/>
<path d="M18.927 9.14144C19.2102 9.14144 19.4397 8.91031 19.4397 8.62506C19.4397 8.33981 19.2102 8.10867 18.927 8.10867H16.8774C16.5943 8.10867 16.3647 8.33981 16.3647 8.62506V12.755C16.3647 13.0402 16.5943 13.2713 16.8774 13.2713H18.927C19.2102 13.2713 19.4397 13.0402 19.4397 12.755C19.4397 12.4697 19.2102 12.2386 18.927 12.2386H17.3901V11.2064H18.927C19.2102 11.2064 19.4397 10.9753 19.4397 10.69C19.4397 10.4048 19.2102 10.1737 18.927 10.1737H17.3901V9.14144H18.927Z" fill="#333333"/>
<path d="M6.89818 9.14144C7.18133 9.14144 7.41088 8.91031 7.41088 8.62506C7.41088 8.33981 7.18133 8.10867 6.89818 8.10867H4.84863C4.56549 8.10867 4.33594 8.33981 4.33594 8.62506V12.755C4.33594 13.0402 4.56549 13.2713 4.84863 13.2713C5.13178 13.2713 5.36133 13.0402 5.36133 12.755V11.2064H6.89818C7.18133 11.2064 7.41088 10.9753 7.41088 10.69C7.41088 10.4048 7.18133 10.1737 6.89818 10.1737H5.36133V9.14144H6.89818Z" fill="#333333"/>
<path d="M11.3757 10.6901V8.62512C11.3757 8.33987 11.1462 8.10873 10.863 8.10873H8.81348C8.53033 8.10873 8.30078 8.33987 8.30078 8.62512V12.755C8.30078 13.0403 8.53033 13.2714 8.81348 13.2714C9.09662 13.2714 9.32617 13.0403 9.32617 12.755V11.3646L10.4365 13.0415C10.5352 13.1908 10.6978 13.2715 10.8635 13.2715C10.9613 13.2715 11.06 13.2434 11.1475 13.1846C11.383 13.0264 11.4467 12.7058 11.2896 12.4685L10.454 11.2065H10.863C11.1462 11.2065 11.3757 10.9753 11.3757 10.6901ZM10.3503 10.1737H9.32617V9.1415H10.3503V10.1737Z" fill="#333333"/>
</svg>
